<svg id="visual" viewBox="0 0 1500 788" width="1500" height="788" xmlns="http://www.w3.org/2000/svg" xmlns:xlink="http://www.w3.org/1999/xlink" version="1.1"><g stroke-width="1" stroke-linejoin="bevel"><path d="M706.8 373L804.2 376L826.2 254.7Z" fill="#a0b9ca" stroke="#a0b9ca"></path><path d="M826.2 254.7L652.8 262.7L706.8 373Z" fill="#a6bbcc" stroke="#a6bbcc"></path><path d="M652.8 262.7L564.5 297.7L706.8 373Z" fill="#c9ccd5" stroke="#c9ccd5"></path><path d="M965.5 274.7L904.5 164.3L826.2 254.7Z" fill="#a0b9ca" stroke="#a0b9ca"></path><path d="M826.2 254.7L803.2 104.3L652.8 262.7Z" fill="#c9ccd5" stroke="#c9ccd5"></path><path d="M904.5 164.3L803.2 104.3L826.2 254.7Z" fill="#93b5c6" stroke="#93b5c6"></path><path d="M652.8 262.7L507.5 136.3L564.5 297.7Z" fill="#c5c9d4" stroke="#c5c9d4"></path><path d="M544.5 374L687.8 499.3L706.8 373Z" fill="#99b7c8" stroke="#99b7c8"></path><path d="M706.8 373L687.8 499.3L804.2 376Z" fill="#93b5c6" stroke="#93b5c6"></path><path d="M940.5 411L965.5 274.7L804.2 376Z" fill="#b1c0cf" stroke="#b1c0cf"></path><path d="M804.2 376L965.5 274.7L826.2 254.7Z" fill="#b6c2d0" stroke="#b6c2d0"></path><path d="M907.5 561.3L940.5 411L804.2 376Z" fill="#c0c7d3" stroke="#c0c7d3"></path><path d="M564.5 297.7L544.5 374L706.8 373Z" fill="#c9ccd5" stroke="#c9ccd5"></path><path d="M803.2 104.3L663.8 98.3L652.8 262.7Z" fill="#b6c2d0" stroke="#b6c2d0"></path><path d="M687.8 499.3L792.2 559.3L804.2 376Z" fill="#b6c2d0" stroke="#b6c2d0"></path><path d="M792.2 559.3L907.5 561.3L804.2 376Z" fill="#b6c2d0" stroke="#b6c2d0"></path><path d="M663.8 98.3L507.5 136.3L652.8 262.7Z" fill="#abbece" stroke="#abbece"></path><path d="M429.1 299.7L449.1 379L544.5 374Z" fill="#abbece" stroke="#abbece"></path><path d="M986.5 0L787.2 0L803.2 104.3Z" fill="#c0c7d3" stroke="#c0c7d3"></path><path d="M803.2 104.3L787.2 0L663.8 98.3Z" fill="#c0c7d3" stroke="#c0c7d3"></path><path d="M663.8 98.3L500.5 0L507.5 136.3Z" fill="#c0c7d3" stroke="#c0c7d3"></path><path d="M429.1 299.7L544.5 374L564.5 297.7Z" fill="#a0b9ca" stroke="#a0b9ca"></path><path d="M544.5 374L570.5 571.3L687.8 499.3Z" fill="#c5c9d4" stroke="#c5c9d4"></path><path d="M697.8 673.7L784.2 664.7L792.2 559.3Z" fill="#c5c9d4" stroke="#c5c9d4"></path><path d="M787.2 0L668.8 0L663.8 98.3Z" fill="#c9ccd5" stroke="#c9ccd5"></path><path d="M396.1 475.3L570.5 571.3L544.5 374Z" fill="#c5c9d4" stroke="#c5c9d4"></path><path d="M792.2 559.3L784.2 664.7L907.5 561.3Z" fill="#b6c2d0" stroke="#b6c2d0"></path><path d="M507.5 136.3L429.1 299.7L564.5 297.7Z" fill="#bbc5d2" stroke="#bbc5d2"></path><path d="M697.8 673.7L792.2 559.3L687.8 499.3Z" fill="#c0c7d3" stroke="#c0c7d3"></path><path d="M1054.9 568.3L1118.9 372L940.5 411Z" fill="#99b7c8" stroke="#99b7c8"></path><path d="M940.5 411L1118.9 372L965.5 274.7Z" fill="#93b5c6" stroke="#93b5c6"></path><path d="M965.5 274.7L1076.9 82.3L904.5 164.3Z" fill="#99b7c8" stroke="#99b7c8"></path><path d="M904.5 164.3L986.5 0L803.2 104.3Z" fill="#abbece" stroke="#abbece"></path><path d="M1118.9 372L1125.9 249.7L965.5 274.7Z" fill="#a0b9ca" stroke="#a0b9ca"></path><path d="M570.5 571.3L697.8 673.7L687.8 499.3Z" fill="#bbc5d2" stroke="#bbc5d2"></path><path d="M507.5 136.3L401.1 179.3L429.1 299.7Z" fill="#b1c0cf" stroke="#b1c0cf"></path><path d="M412.1 0L401.1 179.3L507.5 136.3Z" fill="#bbc5d2" stroke="#bbc5d2"></path><path d="M1076.9 82.3L986.5 0L904.5 164.3Z" fill="#b1c0cf" stroke="#b1c0cf"></path><path d="M1125.9 249.7L1076.9 82.3L965.5 274.7Z" fill="#99b7c8" stroke="#99b7c8"></path><path d="M1000.5 655.7L1054.9 568.3L907.5 561.3Z" fill="#c9ccd5" stroke="#c9ccd5"></path><path d="M907.5 561.3L1054.9 568.3L940.5 411Z" fill="#c9ccd5" stroke="#c9ccd5"></path><path d="M668.8 0L500.5 0L663.8 98.3Z" fill="#b6c2d0" stroke="#b6c2d0"></path><path d="M324.7 393L396.1 475.3L449.1 379Z" fill="#c0c7d3" stroke="#c0c7d3"></path><path d="M449.1 379L396.1 475.3L544.5 374Z" fill="#abbece" stroke="#abbece"></path><path d="M570.5 571.3L518.5 636.7L697.8 673.7Z" fill="#93b5c6" stroke="#93b5c6"></path><path d="M324.7 393L449.1 379L429.1 299.7Z" fill="#b6c2d0" stroke="#b6c2d0"></path><path d="M396.1 475.3L518.5 636.7L570.5 571.3Z" fill="#b1c0cf" stroke="#b1c0cf"></path><path d="M784.2 664.7L1000.5 655.7L907.5 561.3Z" fill="#c9ccd5" stroke="#c9ccd5"></path><path d="M863.2 788L1000.5 655.7L784.2 664.7Z" fill="#abbece" stroke="#abbece"></path><path d="M231.7 293.7L324.7 393L429.1 299.7Z" fill="#a6bbcc" stroke="#a6bbcc"></path><path d="M396.1 475.3L356.1 605.7L518.5 636.7Z" fill="#b1c0cf" stroke="#b1c0cf"></path><path d="M500.5 0L412.1 0L507.5 136.3Z" fill="#a0b9ca" stroke="#a0b9ca"></path><path d="M401.1 179.3L231.7 293.7L429.1 299.7Z" fill="#a0b9ca" stroke="#a0b9ca"></path><path d="M1118.9 372L1221.3 300.7L1125.9 249.7Z" fill="#a0b9ca" stroke="#a0b9ca"></path><path d="M1258.3 136.3L1142.9 0L1076.9 82.3Z" fill="#93b5c6" stroke="#93b5c6"></path><path d="M1226.3 403L1221.3 300.7L1118.9 372Z" fill="#99b7c8" stroke="#99b7c8"></path><path d="M1251.3 498.3L1118.9 372L1054.9 568.3Z" fill="#c0c7d3" stroke="#c0c7d3"></path><path d="M1251.3 498.3L1226.3 403L1118.9 372Z" fill="#a6bbcc" stroke="#a6bbcc"></path><path d="M1000.5 655.7L1136.9 602.7L1054.9 568.3Z" fill="#c9ccd5" stroke="#c9ccd5"></path><path d="M530.5 788L712.8 788L697.8 673.7Z" fill="#b6c2d0" stroke="#b6c2d0"></path><path d="M697.8 673.7L712.8 788L784.2 664.7Z" fill="#99b7c8" stroke="#99b7c8"></path><path d="M1000.5 655.7L1120.9 788L1136.9 602.7Z" fill="#a0b9ca" stroke="#a0b9ca"></path><path d="M1258.3 136.3L1076.9 82.3L1125.9 249.7Z" fill="#c5c9d4" stroke="#c5c9d4"></path><path d="M1076.9 82.3L1142.9 0L986.5 0Z" fill="#c9ccd5" stroke="#c9ccd5"></path><path d="M712.8 788L863.2 788L784.2 664.7Z" fill="#b1c0cf" stroke="#b1c0cf"></path><path d="M220.7 564.3L356.1 605.7L396.1 475.3Z" fill="#abbece" stroke="#abbece"></path><path d="M518.5 636.7L530.5 788L697.8 673.7Z" fill="#99b7c8" stroke="#99b7c8"></path><path d="M243.7 140.3L231.7 293.7L401.1 179.3Z" fill="#b6c2d0" stroke="#b6c2d0"></path><path d="M324.7 393L220.7 564.3L396.1 475.3Z" fill="#a0b9ca" stroke="#a0b9ca"></path><path d="M1414.6 282.7L1258.3 136.3L1221.3 300.7Z" fill="#b1c0cf" stroke="#b1c0cf"></path><path d="M1221.3 300.7L1258.3 136.3L1125.9 249.7Z" fill="#abbece" stroke="#abbece"></path><path d="M1136.9 602.7L1251.3 498.3L1054.9 568.3Z" fill="#abbece" stroke="#abbece"></path><path d="M1226.3 403L1374.6 348L1221.3 300.7Z" fill="#c9ccd5" stroke="#c9ccd5"></path><path d="M863.2 788L981.5 788L1000.5 655.7Z" fill="#b6c2d0" stroke="#b6c2d0"></path><path d="M1136.9 602.7L1278.3 645.7L1251.3 498.3Z" fill="#a0b9ca" stroke="#a0b9ca"></path><path d="M393.1 788L530.5 788L518.5 636.7Z" fill="#abbece" stroke="#abbece"></path><path d="M412.1 0L243.7 140.3L401.1 179.3Z" fill="#abbece" stroke="#abbece"></path><path d="M1258.3 136.3L1245.3 0L1142.9 0Z" fill="#99b7c8" stroke="#99b7c8"></path><path d="M188.4 516.3L220.7 564.3L324.7 393Z" fill="#c5c9d4" stroke="#c5c9d4"></path><path d="M356.1 605.7L393.1 788L518.5 636.7Z" fill="#abbece" stroke="#abbece"></path><path d="M981.5 788L1120.9 788L1000.5 655.7Z" fill="#c9ccd5" stroke="#c9ccd5"></path><path d="M301.7 704.7L393.1 788L356.1 605.7Z" fill="#93b5c6" stroke="#93b5c6"></path><path d="M220.7 564.3L301.7 704.7L356.1 605.7Z" fill="#b1c0cf" stroke="#b1c0cf"></path><path d="M231.7 293.7L188.4 516.3L324.7 393Z" fill="#a0b9ca" stroke="#a0b9ca"></path><path d="M160.4 705.7L245.7 788L301.7 704.7Z" fill="#b1c0cf" stroke="#b1c0cf"></path><path d="M97.4 397L188.4 516.3L231.7 293.7Z" fill="#c5c9d4" stroke="#c5c9d4"></path><path d="M412.1 0L225.7 0L243.7 140.3Z" fill="#c5c9d4" stroke="#c5c9d4"></path><path d="M243.7 140.3L127.4 224.7L231.7 293.7Z" fill="#c9ccd5" stroke="#c9ccd5"></path><path d="M1360.6 536.3L1374.6 348L1251.3 498.3Z" fill="#a6bbcc" stroke="#a6bbcc"></path><path d="M1251.3 498.3L1374.6 348L1226.3 403Z" fill="#c0c7d3" stroke="#c0c7d3"></path><path d="M1258.3 136.3L1331.6 0L1245.3 0Z" fill="#abbece" stroke="#abbece"></path><path d="M1120.9 788L1278.3 645.7L1136.9 602.7Z" fill="#b1c0cf" stroke="#b1c0cf"></path><path d="M225.7 0L154.4 112.3L243.7 140.3Z" fill="#abbece" stroke="#abbece"></path><path d="M154.4 112.3L127.4 224.7L243.7 140.3Z" fill="#c9ccd5" stroke="#c9ccd5"></path><path d="M225.7 0L188.4 0L154.4 112.3Z" fill="#bbc5d2" stroke="#bbc5d2"></path><path d="M1278.3 645.7L1360.6 536.3L1251.3 498.3Z" fill="#abbece" stroke="#abbece"></path><path d="M1408.6 145.3L1331.6 0L1258.3 136.3Z" fill="#c9ccd5" stroke="#c9ccd5"></path><path d="M1374.6 348L1414.6 282.7L1221.3 300.7Z" fill="#bbc5d2" stroke="#bbc5d2"></path><path d="M1500 284.7L1414.6 282.7L1374.6 348Z" fill="#93b5c6" stroke="#93b5c6"></path><path d="M127.4 224.7L97.4 397L231.7 293.7Z" fill="#a6bbcc" stroke="#a6bbcc"></path><path d="M160.4 705.7L301.7 704.7L220.7 564.3Z" fill="#bbc5d2" stroke="#bbc5d2"></path><path d="M1414.6 282.7L1408.6 145.3L1258.3 136.3Z" fill="#b6c2d0" stroke="#b6c2d0"></path><path d="M1259.3 788L1312.6 701.7L1278.3 645.7Z" fill="#c5c9d4" stroke="#c5c9d4"></path><path d="M1278.3 645.7L1312.6 701.7L1360.6 536.3Z" fill="#a0b9ca" stroke="#a0b9ca"></path><path d="M1120.9 788L1259.3 788L1278.3 645.7Z" fill="#99b7c8" stroke="#99b7c8"></path><path d="M160.4 705.7L220.7 564.3L0 612.7Z" fill="#a0b9ca" stroke="#a0b9ca"></path><path d="M301.7 704.7L245.7 788L393.1 788Z" fill="#c9ccd5" stroke="#c9ccd5"></path><path d="M0 612.7L220.7 564.3L188.4 516.3Z" fill="#c0c7d3" stroke="#c0c7d3"></path><path d="M1500 426L1500 284.7L1374.6 348Z" fill="#a0b9ca" stroke="#a0b9ca"></path><path d="M1414.6 282.7L1500 159.3L1408.6 145.3Z" fill="#c9ccd5" stroke="#c9ccd5"></path><path d="M1408.6 145.3L1500 0L1331.6 0Z" fill="#b1c0cf" stroke="#b1c0cf"></path><path d="M1500 426L1374.6 348L1360.6 536.3Z" fill="#c9ccd5" stroke="#c9ccd5"></path><path d="M1500 471.3L1360.6 536.3L1500 644.7Z" fill="#abbece" stroke="#abbece"></path><path d="M1500 471.3L1500 426L1360.6 536.3Z" fill="#b1c0cf" stroke="#b1c0cf"></path><path d="M1500 284.7L1500 159.3L1414.6 282.7Z" fill="#bbc5d2" stroke="#bbc5d2"></path><path d="M0 241.7L0 367L97.4 397Z" fill="#c9ccd5" stroke="#c9ccd5"></path><path d="M97.4 397L0 579.3L188.4 516.3Z" fill="#abbece" stroke="#abbece"></path><path d="M0 241.7L97.4 397L127.4 224.7Z" fill="#93b5c6" stroke="#93b5c6"></path><path d="M0 241.7L127.4 224.7L0 129.3Z" fill="#c5c9d4" stroke="#c5c9d4"></path><path d="M0 129.3L127.4 224.7L154.4 112.3Z" fill="#99b7c8" stroke="#99b7c8"></path><path d="M1500 644.7L1360.6 536.3L1312.6 701.7Z" fill="#a0b9ca" stroke="#a0b9ca"></path><path d="M1259.3 788L1346.6 788L1312.6 701.7Z" fill="#c0c7d3" stroke="#c0c7d3"></path><path d="M0 0L0 129.3L154.4 112.3Z" fill="#c5c9d4" stroke="#c5c9d4"></path><path d="M1500 159.3L1500 0L1408.6 145.3Z" fill="#93b5c6" stroke="#93b5c6"></path><path d="M0 367L0 579.3L97.4 397Z" fill="#b1c0cf" stroke="#b1c0cf"></path><path d="M160.4 705.7L96.4 788L245.7 788Z" fill="#c5c9d4" stroke="#c5c9d4"></path><path d="M1346.6 788L1500 644.7L1312.6 701.7Z" fill="#a6bbcc" stroke="#a6bbcc"></path><path d="M188.4 0L0 0L154.4 112.3Z" fill="#c0c7d3" stroke="#c0c7d3"></path><path d="M0 579.3L0 612.7L188.4 516.3Z" fill="#bbc5d2" stroke="#bbc5d2"></path><path d="M0 612.7L96.4 788L160.4 705.7Z" fill="#c0c7d3" stroke="#c0c7d3"></path><path d="M1346.6 788L1500 788L1500 644.7Z" fill="#a6bbcc" stroke="#a6bbcc"></path><path d="M0 612.7L0 788L96.4 788Z" fill="#93b5c6" stroke="#93b5c6"></path></g></svg>