<svg id="visual" viewBox="0 0 1500 788" width="1500" height="788" xmlns="http://www.w3.org/2000/svg" xmlns:xlink="http://www.w3.org/1999/xlink" version="1.1"><path d="M0 575L31.3 585.3C62.7 595.7 125.3 616.3 187.8 619.7C250.3 623 312.7 609 375.2 598.3C437.7 587.7 500.3 580.3 562.8 559C625.3 537.7 687.7 502.3 750.2 511.8C812.7 521.3 875.3 575.7 937.8 602.2C1000.3 628.7 1062.7 627.3 1125.2 603.5C1187.7 579.7 1250.3 533.3 1312.8 508.2C1375.3 483 1437.7 479 1468.8 477L1500 475L1500 789L1468.8 789C1437.7 789 1375.3 789 1312.8 789C1250.3 789 1187.7 789 1125.2 789C1062.7 789 1000.3 789 937.8 789C875.3 789 812.7 789 750.2 789C687.7 789 625.3 789 562.8 789C500.3 789 437.7 789 375.2 789C312.7 789 250.3 789 187.8 789C125.3 789 62.7 789 31.3 789L0 789Z" fill="#070F1C" stroke-linecap="round" stroke-linejoin="miter"></path></svg>