<svg id="visual" viewBox="0 0 1250 788" width="1250" height="788" xmlns="http://www.w3.org/2000/svg" xmlns:xlink="http://www.w3.org/1999/xlink" version="1.1"><rect x="0" y="0" width="1250" height="788" fill="#FFE3E3"></rect><path d="M0 578L29.8 593.2C59.7 608.3 119.3 638.7 178.8 645C238.3 651.3 297.7 633.7 357.2 620.5C416.7 607.3 476.3 598.7 535.8 582.2C595.3 565.7 654.7 541.3 714.2 550C773.7 558.7 833.3 600.3 892.8 603.7C952.3 607 1011.7 572 1071.2 550C1130.7 528 1190.3 519 1220.2 514.5L1250 510L1250 789L1220.2 789C1190.3 789 1130.7 789 1071.2 789C1011.7 789 952.3 789 892.8 789C833.3 789 773.7 789 714.2 789C654.7 789 595.3 789 535.8 789C476.3 789 416.7 789 357.2 789C297.7 789 238.3 789 178.8 789C119.3 789 59.7 789 29.8 789L0 789Z" fill="#070F1C" stroke-linecap="round" stroke-linejoin="miter"></path></svg>